<svg width="73" height="75" viewBox="0 0 73 75" fill="none" xmlns="http://www.w3.org/2000/svg">
<path d="M1 9.338L27.2051 74L72.1282 69.4056L65.1515 1L1 9.338Z" fill="black" stroke="black" stroke-width="0.340326"/>
<path d="M17.4625 19.3769C17.6761 19.338 17.8751 19.3396 18.0593 19.3817C18.2485 19.4166 18.4242 19.4635 18.5862 19.5223C18.7543 19.58 18.9122 19.6332 19.0598 19.682C19.2063 19.7247 19.3498 19.7333 19.4901 19.7077C19.5989 19.6816 19.7212 19.6436 19.8572 19.5936C19.9748 19.547 20.1085 19.4848 20.2583 19.4071C20.4131 19.3222 20.5818 19.2095 20.7643 19.069C20.5985 19.301 20.4637 19.4958 20.3599 19.6534C20.2612 19.8038 20.186 19.9279 20.1344 20.0255C20.0729 20.1376 20.0288 20.2245 20.0022 20.2861C19.9778 20.3599 19.9412 20.4706 19.8924 20.6182C19.8474 20.7525 19.7859 20.934 19.7077 21.1626C19.6284 21.3851 19.5302 21.6773 19.4132 22.0391C19.3366 21.618 19.2344 21.2992 19.1067 21.0828C18.9852 20.8653 18.8644 20.7044 18.7446 20.6001C18.603 20.4809 18.4557 20.4162 18.3025 20.4063C18.1649 20.4124 18.0351 20.4613 17.913 20.5529C17.7899 20.6383 17.6723 20.7543 17.5602 20.9008C17.4543 21.0462 17.3558 21.2155 17.2648 21.4086C17.1789 21.5945 17.1037 21.7879 17.0394 21.9888C16.9812 22.1886 16.9388 22.3886 16.9122 22.589C16.8845 22.7832 16.8759 22.9613 16.8865 23.1233C16.8937 23.267 16.9207 23.4324 16.9673 23.6194C17.0128 23.8003 17.0748 23.9845 17.153 24.172C17.2302 24.3534 17.319 24.5296 17.4195 24.7005C17.52 24.8714 17.6324 25.0212 17.7567 25.1499C17.886 25.2714 18.0231 25.3662 18.1679 25.4345C18.3116 25.4966 18.4653 25.5096 18.629 25.4735C18.8099 25.4279 18.98 25.3402 19.1392 25.2104C19.2773 25.1032 19.4108 24.9528 19.5395 24.7591C19.667 24.5594 19.7605 24.2933 19.8198 23.9609L21.2198 23.9614C20.9158 24.5086 20.5993 24.9351 20.2703 25.2409C19.9475 25.5456 19.6484 25.7735 19.3732 25.9245C19.0514 26.0965 18.7374 26.2073 18.4311 26.2567C18.0388 26.284 17.6576 26.2336 17.2874 26.1055C16.9173 25.9774 16.5857 25.8013 16.2927 25.5772C16.0046 25.3458 15.764 25.0806 15.5709 24.7816C15.3777 24.4826 15.262 24.1757 15.2236 23.8611C15.198 23.6514 15.1969 23.4025 15.2201 23.1145C15.2423 22.8204 15.2877 22.5158 15.3564 22.2006C15.4313 21.8843 15.5317 21.5696 15.6576 21.2566C15.7835 20.9437 15.9332 20.6579 16.1068 20.3992C16.2794 20.1345 16.4785 19.9122 16.7043 19.7324C16.9351 19.5454 17.1878 19.4269 17.4625 19.3769Z" fill="#FFBE0B"/>
<path d="M23.3217 21.0628C23.4804 21.0339 23.6507 21.0344 23.8327 21.0644C24.0136 21.0882 24.1918 21.1314 24.3671 21.1941C24.5414 21.2507 24.702 21.3192 24.8491 21.3996C25.0011 21.4728 25.1282 21.5474 25.2303 21.6234C25.4129 21.7604 25.5572 21.9643 25.6633 22.2351C25.7743 22.4986 25.8382 22.7802 25.8549 23.0799C25.8705 23.3734 25.8345 23.6606 25.7469 23.9414C25.6592 24.2222 25.5075 24.4452 25.2917 24.6106C25.1364 24.7272 24.9807 24.8249 24.8248 24.9037C24.6689 24.9826 24.5169 25.0481 24.3687 25.1003C24.2206 25.1524 24.0794 25.1908 23.9451 25.2152C23.8108 25.2396 23.6943 25.2577 23.5955 25.2694C23.4102 25.2905 23.2063 25.2614 22.9837 25.1821C22.7673 25.1017 22.5551 24.9921 22.3469 24.8535C22.1449 24.7137 21.9646 24.5542 21.8058 24.375C21.646 24.1897 21.5372 24.0077 21.4794 23.829C21.3973 23.5855 21.3434 23.3241 21.3178 23.045C21.2922 22.7659 21.3346 22.4965 21.445 22.2368C21.5615 21.976 21.7645 21.7404 22.0541 21.53C22.3498 21.3185 22.7723 21.1628 23.3217 21.0628ZM23.6662 24.6701C23.7355 24.6701 23.8243 24.6381 23.9325 24.5743C24.0396 24.5044 24.1386 24.4075 24.2296 24.2838C24.3267 24.1589 24.4035 24.0093 24.46 23.8351C24.5216 23.6536 24.5404 23.4453 24.5165 23.21C24.4937 22.9808 24.4559 22.7733 24.4032 22.5874C24.3565 22.4004 24.2991 22.2406 24.2308 22.108C24.1614 21.9693 24.0909 21.8592 24.0193 21.7776C23.9477 21.6961 23.8781 21.6426 23.8104 21.617C23.6966 21.581 23.5637 21.561 23.4117 21.5572C23.2585 21.5472 23.1345 21.5761 23.0396 21.6438C22.9952 21.6771 22.9436 21.7401 22.8848 21.8328C22.826 21.9255 22.7711 22.0395 22.7201 22.1749C22.668 22.3042 22.6253 22.4507 22.592 22.6144C22.5649 22.777 22.5541 22.9429 22.5597 23.1122C22.5653 23.2814 22.5914 23.4595 22.638 23.6465C22.6908 23.8324 22.7632 24.0052 22.8554 24.165C22.9464 24.3187 23.058 24.4466 23.19 24.5487C23.3271 24.6435 23.4858 24.684 23.6662 24.6701ZM25.7686 20.3715C25.9068 20.3337 26.0236 20.2998 26.119 20.2698C26.2205 20.2388 26.3038 20.211 26.3687 20.1866C26.4458 20.1599 26.5107 20.1355 26.5634 20.1133C26.6172 20.0972 26.6761 20.0739 26.7399 20.0433C26.7987 20.02 26.863 19.9925 26.9329 19.9609C27.0079 19.922 27.0883 19.879 27.1743 19.8318L27.331 21.0046C27.4264 20.7665 27.5526 20.5764 27.7096 20.4343C27.8655 20.2861 28.0178 20.1701 28.1665 20.0863C28.3435 19.9847 28.5255 19.9106 28.7125 19.864C28.9089 19.8345 29.0945 19.8323 29.2693 19.8572C29.4186 19.8805 29.5728 19.9312 29.7321 20.0094C29.8975 20.0865 30.0382 20.2186 30.1542 20.4055C30.3228 20.1541 30.4973 19.9521 30.6776 19.7995C30.8629 19.6396 31.0293 19.5147 31.1769 19.4248C31.3539 19.3232 31.5237 19.2514 31.6863 19.2091C31.9049 19.163 32.113 19.163 32.3105 19.209C32.5142 19.2539 32.6973 19.3246 32.8599 19.4212C33.0214 19.5116 33.1571 19.6161 33.267 19.7349C33.3758 19.8475 33.4451 19.9515 33.4751 20.0469C33.5179 20.1779 33.5404 20.3535 33.5427 20.5738C33.5438 20.788 33.54 21.0094 33.5311 21.238C33.5212 21.4605 33.5115 21.6672 33.5021 21.8581C33.4977 22.0418 33.5052 22.1697 33.5247 22.2418C33.5541 22.2995 33.6102 22.365 33.6929 22.4382C33.7672 22.5003 33.8724 22.5758 34.0084 22.6645C34.1493 22.7461 34.3455 22.8365 34.5969 22.9358C34.4004 22.9652 34.2254 22.9908 34.0717 23.0124C33.9241 23.033 33.7973 23.0466 33.6913 23.0533C33.567 23.0633 33.4585 23.0736 33.3659 23.0842C33.2926 23.0975 33.203 23.1075 33.097 23.1142C33.0105 23.1236 32.8959 23.135 32.7533 23.1484C32.6168 23.1606 32.4589 23.1767 32.2797 23.1967C32.3435 23.1662 32.3923 23.1226 32.4262 23.066C32.4589 23.0033 32.4861 22.9448 32.5077 22.8904C32.5271 22.8238 32.5393 22.7522 32.5443 22.6757C32.5454 22.6124 32.5398 22.5125 32.5276 22.376C32.5153 22.2395 32.4967 22.0853 32.4717 21.9132C32.4528 21.7401 32.4261 21.559 32.3917 21.3697C32.3634 21.1794 32.3306 20.9994 32.2934 20.8296C32.2562 20.6598 32.2156 20.5064 32.1718 20.3693C32.1279 20.2323 32.084 20.1299 32.0402 20.0622C32.0058 20.0117 31.9553 19.9768 31.8887 19.9574C31.821 19.9319 31.7469 19.9233 31.6664 19.9316C31.5849 19.9339 31.5061 19.9513 31.4301 19.9841C31.3529 20.0108 31.2872 20.0479 31.2328 20.0957C31.1857 20.1484 31.123 20.2197 31.0448 20.3096C30.9776 20.3912 30.8905 20.5016 30.7835 20.6409C30.6764 20.7802 30.5413 20.9562 30.3782 21.1687C30.4299 21.5566 30.4713 21.8707 30.5024 22.1109C30.5386 22.344 30.5647 22.5221 30.5808 22.6453C30.6014 22.7929 30.6166 22.8941 30.6266 22.949C30.6294 22.999 30.6408 23.0442 30.6608 23.0847C30.6897 23.174 30.7418 23.2528 30.8173 23.3211C30.7407 23.3161 30.6592 23.3183 30.5726 23.3278C30.4922 23.3361 30.4178 23.3433 30.3495 23.3495C30.2691 23.3578 30.1892 23.3692 30.1098 23.3836C30.0427 23.3959 29.97 23.4122 29.8918 23.4328C29.8258 23.4511 29.745 23.4753 29.6496 23.5052C29.553 23.5291 29.4479 23.5577 29.3341 23.591C29.3774 23.5516 29.4104 23.5078 29.4332 23.4595C29.4559 23.4112 29.4731 23.3671 29.4847 23.3272C29.5014 23.28 29.5125 23.237 29.518 23.1981C29.5175 23.1604 29.5135 23.0697 29.5063 22.926C29.498 22.7762 29.479 22.603 29.4496 22.4066C29.4202 22.2102 29.3829 22.0057 29.3379 21.7932C29.2918 21.5746 29.2344 21.3801 29.1655 21.2098C29.0956 21.0333 29.0104 20.8943 28.9099 20.7928C28.8156 20.6902 28.7085 20.6561 28.5886 20.6905C28.4444 20.7294 28.3015 20.7932 28.16 20.882C28.0407 20.9542 27.9167 21.0524 27.788 21.1768C27.6593 21.3011 27.5459 21.4573 27.4477 21.6454C27.5066 22.1076 27.5574 22.4736 27.6002 22.7432C27.6491 23.0118 27.6894 23.2157 27.721 23.355C27.7571 23.5187 27.7838 23.6305 27.801 23.6904C27.8149 23.732 27.8379 23.772 27.8701 23.8102C27.8951 23.8435 27.9242 23.8824 27.9575 23.9268C27.9969 23.97 28.0388 24.0097 28.0832 24.0458L26.6142 24.2375C26.6586 24.2042 26.6958 24.1659 26.7257 24.1226C26.7546 24.0732 26.7773 24.0249 26.7939 23.9778C26.8095 23.9245 26.825 23.8712 26.8405 23.8179C26.851 23.7719 26.848 23.6684 26.8313 23.5075C26.8207 23.3455 26.8021 23.1565 26.7754 22.9407C26.7476 22.7187 26.7151 22.4882 26.6779 22.249C26.6457 22.0027 26.6107 21.7757 26.5729 21.5682C26.5401 21.3535 26.5104 21.1729 26.4837 21.0264C26.4559 20.8738 26.4362 20.7828 26.4246 20.7534C26.3951 20.6957 26.3499 20.6377 26.2888 20.5794C26.2372 20.5384 26.1698 20.4971 26.0866 20.4555C26.0022 20.4078 25.8962 20.3798 25.7686 20.3715ZM33.8619 18.8982C34.0001 18.8605 34.1169 18.8266 34.2123 18.7966C34.3139 18.7655 34.3971 18.7378 34.462 18.7133C34.5391 18.6867 34.604 18.6623 34.6568 18.6401C34.7106 18.624 34.7694 18.6006 34.8332 18.5701C34.892 18.5468 34.9564 18.5193 35.0263 18.4877C35.1012 18.4488 35.1816 18.4058 35.2676 18.3586L35.4244 19.5313C35.5197 19.2933 35.6459 19.1032 35.8029 18.9611C35.9588 18.8129 36.1111 18.6969 36.2598 18.6131C36.4368 18.5115 36.6188 18.4374 36.8058 18.3907C37.0022 18.3613 37.1878 18.359 37.3626 18.384C37.5119 18.4072 37.6662 18.458 37.8254 18.5362C37.9908 18.6133 38.1315 18.7453 38.2475 18.9323C38.4161 18.6809 38.5906 18.4789 38.7709 18.3263C38.9562 18.1664 39.1227 18.0415 39.2703 17.9516C39.4472 17.85 39.617 17.7781 39.7796 17.7359C39.9982 17.6898 40.2063 17.6898 40.4039 17.7358C40.6075 17.7807 40.7906 17.8514 40.9532 17.9479C41.1147 18.0383 41.2504 18.1429 41.3603 18.2616C41.4691 18.3743 41.5385 18.4783 41.5685 18.5737C41.6112 18.7047 41.6337 18.8803 41.636 19.1006C41.6371 19.3148 41.6333 19.5362 41.6245 19.7648C41.6145 19.9873 41.6049 20.194 41.5955 20.3849C41.5911 20.5685 41.5986 20.6964 41.618 20.7686C41.6474 20.8263 41.7035 20.8917 41.7862 20.965C41.8606 21.0271 41.9657 21.1026 42.1017 21.1913C42.2427 21.2728 42.4388 21.3633 42.6902 21.4625C42.4938 21.492 42.3187 21.5175 42.165 21.5392C42.0174 21.5598 41.8906 21.5734 41.7847 21.5801C41.6604 21.5901 41.5519 21.6004 41.4592 21.6109C41.386 21.6243 41.2964 21.6343 41.1904 21.641C41.1038 21.6504 40.9892 21.6618 40.8466 21.6752C40.7101 21.6874 40.5523 21.7035 40.373 21.7235C40.4368 21.693 40.4857 21.6494 40.5195 21.5928C40.5522 21.5301 40.5794 21.4716 40.601 21.4172C40.6204 21.3506 40.6326 21.279 40.6376 21.2024C40.6387 21.1392 40.6331 21.0393 40.6209 20.9028C40.6087 20.7663 40.5901 20.612 40.565 20.44C40.5461 20.2669 40.5195 20.0857 40.485 19.8965C40.4567 19.7062 40.4239 19.5261 40.3867 19.3564C40.3495 19.1866 40.309 19.0331 40.2651 18.8961C40.2212 18.7591 40.1774 18.6567 40.1335 18.589C40.0991 18.5385 40.0486 18.5036 39.982 18.4842C39.9143 18.4586 39.8402 18.4501 39.7598 18.4584C39.6782 18.4606 39.5994 18.4781 39.5234 18.5109C39.4463 18.5375 39.3805 18.5747 39.3262 18.6225C39.279 18.6752 39.2163 18.7465 39.1381 18.8364C39.071 18.918 38.9839 19.0284 38.8768 19.1677C38.7697 19.307 38.6347 19.483 38.4716 19.6955C38.5233 20.0834 38.5647 20.3974 38.5958 20.6377C38.6319 20.8707 38.658 21.0488 38.6741 21.172C38.6947 21.3196 38.71 21.4209 38.72 21.4758C38.7228 21.5258 38.7341 21.571 38.7541 21.6115C38.783 21.7008 38.8352 21.7796 38.9106 21.8478C38.8341 21.8429 38.7525 21.8451 38.6659 21.8545C38.5855 21.8629 38.5111 21.8701 38.4429 21.8762C38.3624 21.8846 38.2825 21.896 38.2032 21.9104C38.136 21.9226 38.0634 21.939 37.9851 21.9596C37.9191 21.9779 37.8384 22.002 37.7429 22.032C37.6464 22.0559 37.5412 22.0845 37.4275 22.1178C37.4708 22.0784 37.5038 22.0346 37.5265 21.9863C37.5492 21.938 37.5664 21.8939 37.5781 21.8539C37.5947 21.8068 37.6058 21.7638 37.6113 21.7249C37.6108 21.6872 37.6069 21.5965 37.5996 21.4527C37.5913 21.3029 37.5724 21.1298 37.5429 20.9334C37.5135 20.737 37.4763 20.5325 37.4313 20.32C37.3852 20.1014 37.3277 19.9069 37.2589 19.7365C37.1889 19.5601 37.1037 19.4211 37.0033 19.3196C36.9089 19.217 36.8018 19.1829 36.6819 19.2173C36.5377 19.2562 36.3948 19.32 36.2533 19.4088C36.134 19.481 36.01 19.5792 35.8813 19.7035C35.7526 19.8279 35.6392 19.9841 35.541 20.1722C35.5999 20.6344 35.6508 21.0004 35.6936 21.27C35.7424 21.5386 35.7827 21.7425 35.8144 21.8818C35.8505 22.0455 35.8771 22.1573 35.8943 22.2172C35.9082 22.2588 35.9313 22.2987 35.9634 22.337C35.9884 22.3703 36.0176 22.4091 36.0509 22.4535C36.0903 22.4968 36.1322 22.5365 36.1766 22.5725L34.7075 22.7643C34.7519 22.731 34.7891 22.6927 34.819 22.6494C34.8479 22.6 34.8706 22.5517 34.8873 22.5045C34.9028 22.4513 34.9183 22.398 34.9338 22.3447C34.9444 22.2987 34.9413 22.1952 34.9246 22.0343C34.9141 21.8722 34.8954 21.6833 34.8687 21.4675C34.841 21.2455 34.8085 21.015 34.7712 20.7758C34.739 20.5294 34.704 20.3025 34.6662 20.095C34.6334 19.8802 34.6037 19.6996 34.577 19.5531C34.5493 19.4006 34.5295 19.3096 34.5179 19.2801C34.4885 19.2224 34.4432 19.1645 34.3822 19.1062C34.3306 19.0652 34.2631 19.0238 34.1799 18.9822C34.0955 18.9345 33.9896 18.9065 33.8619 18.8982ZM42.0701 17.5365C42.2344 17.5382 42.3762 17.5376 42.4955 17.5348C42.6198 17.5248 42.7257 17.5181 42.8134 17.5147C42.9133 17.5092 43.0004 17.5028 43.0748 17.4955C43.1491 17.4883 43.2357 17.4789 43.3345 17.4672C43.5004 17.4433 43.7323 17.4011 44.0303 17.3405C43.851 17.3605 43.719 17.4319 43.6341 17.5545C43.5542 17.67 43.5015 17.7962 43.476 17.9333C43.4428 18.097 43.4414 18.2801 43.472 18.4826C43.5087 18.7534 43.5592 18.9964 43.6236 19.2117C43.693 19.4198 43.7782 19.5934 43.8793 19.7327C43.9853 19.8647 44.109 19.9557 44.2505 20.0056C44.3909 20.0494 44.5591 20.0377 44.7549 19.9706C44.9508 19.9034 45.0906 19.8054 45.1744 19.6767C45.2631 19.5407 45.3169 19.3859 45.3357 19.2122C45.3535 19.0324 45.3459 18.8351 45.3132 18.6204C45.2865 18.4046 45.2551 18.1801 45.219 17.9471C45.1767 17.7151 45.1437 17.5509 45.1198 17.4543C45.1009 17.3506 45.0857 17.284 45.074 17.2546C45.0623 17.2252 45.051 17.2146 45.0399 17.223C45.0277 17.2252 45.0096 17.2127 44.9858 17.1855C44.9691 17.1633 44.9463 17.1422 44.9175 17.1223C44.8947 17.1012 44.8653 17.0782 44.8292 17.0532C44.7921 17.0221 44.7518 16.9916 44.7085 16.9617C44.8683 16.9389 45.0098 16.9194 45.133 16.9033C45.2612 16.88 45.3686 16.8636 45.4551 16.8542C45.5539 16.8425 45.6404 16.833 45.7148 16.8258C45.7831 16.8197 45.8732 16.8127 45.9853 16.8049C46.0791 16.8005 46.2003 16.791 46.349 16.7766C46.4977 16.7621 46.675 16.7488 46.8809 16.7365C46.7461 16.7926 46.6415 16.8589 46.5671 16.9355C46.4928 17.0121 46.4368 17.0853 46.3991 17.1553C46.3563 17.2324 46.33 17.3129 46.32 17.3967C46.3206 17.5038 46.3495 17.6624 46.4067 17.8727C46.4533 18.0597 46.5311 18.3136 46.6399 18.6343C46.7487 18.955 46.9039 19.3744 47.1054 19.8927L46.4605 20.4546L46.0923 19.2636C45.9698 19.5949 45.8228 19.8613 45.6514 20.0628C45.4849 20.257 45.3229 20.4063 45.1654 20.5107C44.9795 20.6328 44.7931 20.7172 44.6061 20.7638C44.3559 20.8094 44.1364 20.8335 43.9477 20.8364C43.7641 20.832 43.6031 20.814 43.465 20.7824C43.3268 20.7508 43.2119 20.7086 43.1204 20.6559C43.0338 20.596 42.9655 20.5328 42.9156 20.4662C42.8023 20.3291 42.721 20.1422 42.6716 19.9052C42.621 19.6622 42.5863 19.4194 42.5674 19.177C42.5474 18.9284 42.5343 18.7006 42.5281 18.4936C42.522 18.2866 42.5061 18.1476 42.4806 18.0766C42.4584 18.0239 42.429 17.9662 42.3923 17.9035C42.3579 17.853 42.3163 17.7976 42.2675 17.7371C42.2175 17.6705 42.1517 17.6037 42.0701 17.5365ZM47.872 19.791C47.8781 19.5818 47.8764 19.3992 47.8669 19.2433C47.8624 19.0802 47.8568 18.9456 47.8502 18.8396C47.8401 18.7153 47.8274 18.6105 47.8118 18.525C47.7868 18.4224 47.7585 18.3014 47.7268 18.1621C47.7002 18.0156 47.668 17.8733 47.6302 17.7352C47.5974 17.5898 47.5649 17.4633 47.5327 17.3556C47.4994 17.2419 47.4692 17.1623 47.442 17.1168C47.4087 17.0724 47.3656 17.0266 47.3129 16.9795C47.2086 16.8912 47.0651 16.8133 46.8826 16.7457C47.0174 16.6896 47.132 16.6435 47.2263 16.6074C47.3256 16.5641 47.4072 16.5272 47.471 16.4967C47.5398 16.4589 47.6 16.4259 47.6516 16.3976C47.6971 16.3704 47.7517 16.3415 47.8155 16.311C47.8682 16.2888 47.9326 16.2613 48.0086 16.2285C48.0846 16.1958 48.1723 16.1578 48.2716 16.1145L48.3958 16.9526C48.5489 16.6851 48.7156 16.4751 48.8959 16.3224C49.0762 16.1698 49.2504 16.0529 49.4185 15.9719C49.6088 15.8742 49.8016 15.8076 49.997 15.772C50.2433 15.7398 50.4764 15.7384 50.6961 15.7677C50.922 15.796 51.1195 15.842 51.2888 15.9058C51.463 15.9623 51.6079 16.0305 51.7233 16.1104C51.8387 16.1903 51.9123 16.2652 51.9439 16.3351C52.0605 16.5598 52.1188 16.7762 52.1188 16.9843C52.1178 17.1863 52.1039 17.3874 52.0773 17.5878C52.0557 17.7809 52.0402 17.9729 52.0308 18.1637C52.0276 18.3535 52.0789 18.5491 52.1849 18.7505C52.2194 18.801 52.2538 18.8515 52.2882 18.902C52.3215 18.9464 52.3609 18.9896 52.4064 19.0318C52.4519 19.0739 52.5019 19.1058 52.5562 19.1275C52.488 19.1336 52.4203 19.1428 52.3532 19.155C52.2849 19.1611 52.2228 19.1661 52.1667 19.17C52.0985 19.1761 52.0363 19.1811 51.9803 19.185C51.9181 19.19 51.8352 19.202 51.7314 19.2209C51.5544 19.2531 51.2814 19.3122 50.9124 19.3983C50.944 19.2601 50.9673 19.1456 50.9823 19.0546C51.0022 18.9563 51.0194 18.8775 51.0338 18.8182C51.046 18.7466 51.0549 18.6914 51.0604 18.6525C51.1015 18.4622 51.1075 18.253 51.0786 18.0249C51.0558 17.7958 50.9989 17.5697 50.9079 17.3466C50.8751 17.2706 50.8274 17.1815 50.7646 17.0795C50.7019 16.9774 50.6245 16.8811 50.5324 16.7907C50.4463 16.6991 50.3478 16.6256 50.2368 16.5702C50.1319 16.5136 50.0174 16.4903 49.8931 16.5003C49.7688 16.5103 49.637 16.5659 49.4977 16.6669C49.3646 16.7668 49.2303 16.93 49.095 17.1564C48.9968 17.3445 48.9328 17.5643 48.9029 17.8156C48.8724 18.0293 48.8727 18.2909 48.9038 18.6005C48.9339 18.904 49.0344 19.2483 49.2054 19.6334C49.1177 19.6367 49.0372 19.6451 48.964 19.6584C48.8896 19.6656 48.8275 19.6706 48.7775 19.6734C48.7154 19.6784 48.6594 19.6823 48.6094 19.6851C48.5545 19.6951 48.4929 19.7032 48.4246 19.7093C48.3636 19.7204 48.2873 19.7343 48.1958 19.751C48.1031 19.7615 47.9952 19.7749 47.872 19.791ZM52.5198 15.7574L54.2077 15.469C54.1778 15.8591 54.1623 16.1898 54.1613 16.4612C54.1663 16.7314 54.1789 16.9561 54.1989 17.1354C54.2111 17.3412 54.2361 17.5132 54.2739 17.6514C54.3155 17.7762 54.371 17.908 54.4404 18.0467C54.4993 18.1621 54.5798 18.2925 54.6819 18.4379C54.784 18.5832 54.9106 18.7241 55.0615 18.8606C54.9838 18.8495 54.9012 18.8457 54.8135 18.849C54.7258 18.8524 54.6448 18.8576 54.5704 18.8649C54.4839 18.8743 54.3984 18.8899 54.3141 18.9115C54.2298 18.9332 54.1368 18.9596 54.0353 18.9907C53.952 19.0184 53.8511 19.0526 53.7323 19.0931C53.6136 19.1336 53.4899 19.1814 53.3611 19.2363C53.4027 18.945 53.4296 18.6942 53.4417 18.4839C53.46 18.2725 53.4691 18.0974 53.4691 17.9587C53.4646 17.7956 53.4565 17.6646 53.4449 17.5658C53.4226 17.4438 53.3976 17.3064 53.3699 17.1538C53.341 16.9951 53.3132 16.8426 53.2865 16.6961C53.2599 16.5496 53.2335 16.422 53.2074 16.3132C53.1802 16.1984 53.1546 16.1273 53.1308 16.1002L53.0225 16.0253C52.9804 16.0014 52.9177 15.9687 52.8344 15.9271C52.7562 15.8783 52.6513 15.8217 52.5198 15.7574ZM52.9131 14.2291C53.0291 14.1386 53.1539 14.097 53.2877 14.1042C53.4275 14.1103 53.5418 14.1493 53.6306 14.2215C53.7194 14.2936 53.7622 14.3899 53.7589 14.5103C53.7617 14.6296 53.6846 14.7603 53.5275 14.9023C53.3694 15.0383 53.2205 15.1033 53.0806 15.0972C52.9408 15.0911 52.8345 15.0443 52.7618 14.9566C52.6891 14.8689 52.6594 14.7577 52.6727 14.6228C52.6849 14.4819 52.765 14.3507 52.9131 14.2291ZM54.348 13.6936C54.5344 13.6786 54.6898 13.6661 54.8141 13.6561C54.9445 13.6449 55.0499 13.6352 55.1304 13.6269C55.223 13.6163 55.2968 13.606 55.3518 13.596C55.4078 13.5921 55.481 13.5788 55.5715 13.556C55.6497 13.5355 55.7524 13.5105 55.8794 13.4811C56.0054 13.4455 56.1638 13.3978 56.3547 13.3378C56.3231 13.4066 56.2995 13.4677 56.284 13.5209C56.2673 13.5681 56.2532 13.6117 56.2415 13.6516L56.2066 13.7715C56.2011 13.8103 56.1955 13.8492 56.19 13.888C56.1833 13.9207 56.1778 13.9596 56.1734 14.0045C56.175 14.0484 56.1773 14.0953 56.18 14.1452L57.59 13.8886L57.5968 14.6535L56.2926 14.8152C56.3187 15.132 56.3412 15.377 56.3601 15.5502C56.379 15.7233 56.3896 15.8506 56.3918 15.9322L56.4035 16.1003C56.4274 16.3356 56.4552 16.5922 56.4869 16.8702C56.5175 17.1421 56.5569 17.3935 56.6053 17.6243C56.6536 17.8551 56.7105 18.0465 56.776 18.1986C56.8404 18.3445 56.9184 18.4091 57.0099 18.3924C57.1015 18.3758 57.1825 18.3358 57.2529 18.2725C57.3234 18.2093 57.38 18.1391 57.4227 18.0619C57.4715 17.9837 57.5051 17.9082 57.5234 17.8355C57.5405 17.7567 57.5458 17.699 57.5391 17.6624C57.5325 17.6258 57.5155 17.5847 57.4883 17.5392C57.4412 17.4532 57.3651 17.3472 57.2602 17.2213C57.445 17.2318 57.6084 17.2462 57.7505 17.2645C57.8221 17.2767 57.8875 17.29 57.9469 17.3044C58.0124 17.3177 58.0876 17.3324 58.1725 17.3485C58.2452 17.3668 58.3373 17.3878 58.4488 17.4117C58.5604 17.4355 58.6919 17.4652 58.8434 17.5006C58.7135 17.5495 58.6231 17.6069 58.5721 17.673C58.5399 17.7041 58.5174 17.7365 58.5047 17.7704C58.4742 17.8453 58.442 17.9457 58.4082 18.0717C58.3732 18.1916 58.3108 18.3164 58.221 18.4463C58.1311 18.5762 57.9994 18.701 57.8257 18.8209C57.6581 18.9397 57.4198 19.0335 57.1108 19.1024C56.7895 19.1735 56.5323 19.1636 56.3392 19.0726C56.1522 18.9805 56.0046 18.8624 55.8963 18.7181C55.7931 18.5667 55.7209 18.4127 55.6798 18.2562C55.6387 18.0997 55.6101 17.9946 55.594 17.9408C55.5779 17.887 55.5529 17.7496 55.519 17.5288C55.4851 17.3079 55.4504 17.0652 55.4148 16.8005C55.3782 16.5297 55.3437 16.2712 55.3115 16.0248C55.2781 15.7723 55.2509 15.5881 55.2298 15.4721C55.2187 15.4111 55.2101 15.3465 55.204 15.2782C55.194 15.2233 55.1834 15.1653 55.1723 15.1043C55.1662 15.036 55.1576 14.9714 55.1464 14.9103L53.8173 15.1428L53.6673 14.631L55.0107 14.4243C54.9862 14.3594 54.9599 14.3011 54.9316 14.2495C54.9082 14.1907 54.8872 14.1441 54.8683 14.1097C54.8422 14.0703 54.8172 14.037 54.7933 14.0098C54.7634 13.9837 54.7298 13.9552 54.6926 13.9241C54.6565 13.8991 54.6097 13.8667 54.5519 13.8268C54.4942 13.7868 54.4262 13.7424 54.348 13.6936ZM57.3845 14.2665C57.5099 14.2626 57.6225 14.2578 57.7224 14.2523C57.8151 14.2417 57.8986 14.2328 57.9729 14.2256C58.0534 14.2172 58.1302 14.2064 58.2035 14.1931C58.2706 14.1808 58.3555 14.1622 58.4581 14.1372C58.5425 14.1156 58.6512 14.0895 58.7844 14.0589C58.9226 14.0212 59.0846 13.9759 59.2705 13.9232C59.2627 13.9498 59.2522 14.0305 59.2389 14.1654C59.2245 14.2941 59.2156 14.4534 59.2123 14.6432C59.2079 14.8268 59.2105 15.0313 59.22 15.2566C59.2344 15.4747 59.2611 15.6905 59.3 15.9041C59.3439 16.1105 59.4075 16.3039 59.4907 16.4842C59.5729 16.6584 59.6795 16.7935 59.8104 16.8895C60.0857 17.0853 60.3163 17.1915 60.5022 17.2081C60.6942 17.2236 60.8517 17.1887 60.9749 17.1032C61.0981 17.0177 61.1913 16.9061 61.2545 16.7685C61.3177 16.6309 61.3582 16.5069 61.3759 16.3964C61.4164 16.099 61.4174 15.793 61.3791 15.4784C61.3424 15.2076 61.2666 14.9124 61.1517 14.5928C61.0368 14.2732 60.8444 13.9614 60.5747 13.6574C60.7356 13.6407 60.8746 13.6249 60.9917 13.6099C61.1088 13.5949 61.2106 13.5826 61.2971 13.5732C61.3959 13.5615 61.4825 13.5521 61.5568 13.5448C61.6251 13.5387 61.7044 13.5243 61.7949 13.5015C61.8742 13.487 61.9683 13.4668 62.077 13.4407C62.1908 13.4074 62.3167 13.3718 62.4549 13.3341C62.5882 13.9278 62.7067 14.4579 62.8106 14.9246C62.9133 15.3851 63.0005 15.7949 63.0722 16.1539C63.1488 16.5057 63.2111 16.8128 63.2588 17.0752C63.3055 17.3316 63.3449 17.5483 63.3772 17.7253C63.4477 18.1475 63.48 18.4286 63.4739 18.5684C63.4595 18.7665 63.4054 18.9718 63.3117 19.1844C63.2241 19.3958 63.099 19.592 62.9364 19.7729C62.775 19.9599 62.5764 20.1159 62.3406 20.2408C62.112 20.3707 61.849 20.4501 61.5516 20.479C61.2603 20.5068 61.0242 20.5088 60.8433 20.485C60.6696 20.4662 60.5278 20.4321 60.4179 20.3827C60.3141 20.3322 60.2342 20.2743 60.1782 20.2088C60.1282 20.1422 60.0869 20.0709 60.0541 19.9949C60.0225 19.925 59.9914 19.8581 59.9608 19.7943C59.9303 19.7305 59.8831 19.6792 59.8193 19.6404C59.7422 19.5977 59.662 19.5555 59.5787 19.5139C59.5027 19.4773 59.4206 19.4418 59.3323 19.4074C59.2502 19.3719 59.1698 19.3456 59.091 19.3284L61.021 18.8636C60.9794 18.9468 60.952 19.0212 60.9387 19.0866C60.9254 19.1521 60.9196 19.2068 60.9212 19.2506C60.9251 19.3067 60.9365 19.3519 60.9554 19.3863C60.9931 19.4551 61.0503 19.5266 61.1269 19.601C61.2107 19.6803 61.3089 19.735 61.4216 19.7649C61.5353 19.8009 61.6607 19.797 61.7978 19.7532C61.9409 19.7082 62.0919 19.6019 62.2505 19.4343C62.382 19.2905 62.4763 19.0811 62.5334 18.8058C62.5788 18.5705 62.5899 18.2501 62.5665 17.8445C62.5431 17.4388 62.4389 16.9187 62.254 16.2839C62.2131 16.6823 62.1163 16.9995 61.9637 17.2353C61.8112 17.4712 61.6487 17.6521 61.4761 17.7781C61.2764 17.928 61.0581 18.0276 60.8211 18.077C60.5015 18.1226 60.2227 18.1324 59.9846 18.1063C59.7455 18.0742 59.5415 18.0104 59.3728 17.915C59.2041 17.8196 59.062 17.6973 58.9466 17.5481C58.8361 17.3916 58.7437 17.2129 58.6693 17.0121C58.5949 16.8112 58.5388 16.607 58.5011 16.3995C58.4622 16.1859 58.4261 15.9875 58.3927 15.8044C58.3655 15.6202 58.3386 15.4549 58.3119 15.3084C58.2841 15.1558 58.2466 15.0365 58.1995 14.9505C58.1462 14.8656 58.0807 14.7829 58.003 14.7025C57.9397 14.632 57.857 14.5588 57.7549 14.4828C57.6456 14.4018 57.5221 14.3297 57.3845 14.2665Z" fill="#99E9F2"/>
<path d="M30.6948 34.3137C30.6449 34.5246 30.5997 34.7094 30.5593 34.8681C30.5188 35.0268 30.4836 35.1625 30.4536 35.2751C30.4198 35.4011 30.3929 35.5132 30.373 35.6114C30.3547 35.6841 30.3317 35.7829 30.304 35.9078C30.274 36.0204 30.238 36.1688 30.1958 36.3531C30.1587 36.5301 30.1091 36.7598 30.047 37.0423C29.951 36.8264 29.8477 36.6403 29.7372 36.4838C29.6268 36.3274 29.5141 36.1934 29.3992 36.0819C29.2844 35.9704 29.1678 35.8844 29.0496 35.8239C28.9364 35.7563 28.826 35.7039 28.7183 35.6667C28.4702 35.5857 28.22 35.5619 27.9675 35.5953C27.6413 35.6736 27.3919 35.7757 27.2193 35.9017C27.0518 36.0205 26.9358 36.1457 26.8715 36.2772C26.806 36.4026 26.7814 36.5269 26.7975 36.6501C26.8125 36.7672 26.8455 36.862 26.8966 36.9347C26.9404 37.0024 27.0628 37.0684 27.2637 37.1327C27.4707 37.196 27.7171 37.2678 28.0028 37.3482C28.2936 37.4214 28.606 37.5095 28.9401 37.6127C29.2731 37.7097 29.5849 37.8295 29.8757 37.972C30.1715 38.1074 30.4279 38.2688 30.6449 38.4563C30.8669 38.6366 31.0093 38.8471 31.072 39.088C31.147 39.3959 31.195 39.6772 31.2162 39.9319C31.2373 40.1866 31.1908 40.4158 31.0765 40.6194C30.9622 40.8231 30.7589 41.0052 30.4665 41.1656C30.1802 41.3249 29.7677 41.4662 29.2289 41.5895C28.6718 41.7161 28.2054 41.7695 27.8298 41.7496C27.4541 41.7297 27.14 41.6671 26.8875 41.5617C26.6411 41.4552 26.4469 41.3234 26.3048 41.1664C26.1688 41.0083 26.062 40.8544 25.9843 40.7046C25.9054 40.5486 25.8463 40.4144 25.8069 40.3017C25.7664 40.183 25.7225 40.1153 25.6754 40.0987C25.621 40.077 25.5671 40.0585 25.5139 40.0429C25.4667 40.0263 25.417 40.0133 25.3649 40.0039C25.3116 39.9883 25.2589 39.9759 25.2067 39.9664L27.7926 39.0512C27.6622 39.201 27.5638 39.3356 27.4972 39.4549C27.4367 39.5731 27.3924 39.6758 27.3641 39.7629C27.3319 39.8633 27.3139 39.9549 27.3101 40.0376C27.3134 40.1253 27.3603 40.2271 27.4508 40.343C27.5412 40.459 27.6556 40.5674 27.7938 40.6684C27.9369 40.7621 28.0951 40.8342 28.2682 40.8847C28.4414 40.9352 28.6123 40.9387 28.781 40.8954C28.9913 40.8382 29.1558 40.7547 29.2745 40.6448C29.3921 40.5288 29.4723 40.3975 29.515 40.251C29.5638 40.1034 29.5798 39.9492 29.5631 39.7883C29.5465 39.6273 29.5029 39.4745 29.4324 39.3297C29.3669 39.1776 29.2792 39.0423 29.1693 38.9235C29.0583 38.7987 28.9364 38.7011 28.8038 38.6306C28.6867 38.5763 28.5122 38.5355 28.2802 38.5084C28.0544 38.4801 27.8 38.4508 27.517 38.4203C27.2401 38.3887 26.9518 38.3466 26.6521 38.294C26.3586 38.2402 26.085 38.1576 25.8314 38.0461C25.5839 37.9335 25.3741 37.7857 25.2021 37.6026C25.0361 37.4184 24.9417 37.1771 24.9189 36.8785C24.8978 36.6238 24.9394 36.4019 25.0437 36.2126C25.1529 36.0162 25.3024 35.8502 25.4922 35.7148C25.6869 35.5722 25.908 35.4531 26.1555 35.3576C26.409 35.261 26.6695 35.1852 26.937 35.1302C27.2094 35.068 27.4785 35.0222 27.7443 34.9927C28.0162 34.9621 28.2612 34.9396 28.4793 34.9251C28.6973 34.9107 28.8818 34.9023 29.0328 34.9001C29.1887 34.8906 29.2855 34.8856 29.3233 34.885C29.4842 34.8683 29.6423 34.8364 29.7977 34.7892C29.9358 34.7514 30.0834 34.6962 30.2404 34.6235C30.4024 34.5435 30.5539 34.4403 30.6948 34.3137Z" fill="#FF006E"/>
<path d="M36.5325 36.8171C36.457 36.8182 36.3638 36.8257 36.2528 36.8396C36.148 36.8524 36.0467 36.8676 35.9491 36.8854C35.8392 36.9054 35.7238 36.9296 35.6028 36.9579C35.4758 36.9873 35.3487 37.0168 35.2216 37.0462C35.1129 37.0723 34.9894 37.1042 34.8513 37.142C34.7181 37.1726 34.5885 37.2056 34.4626 37.2411C34.507 37.2078 34.5436 37.1665 34.5724 37.1171C34.6074 37.0666 34.6362 37.0172 34.659 36.9689C34.6806 36.9145 34.6986 36.8577 34.713 36.7983C34.7269 36.7012 34.7038 36.5919 34.6439 36.4704C34.5828 36.3427 34.4934 36.2329 34.3758 36.1408C34.2642 36.0476 34.1297 35.9838 33.9721 35.9495C33.8195 35.9079 33.661 35.9209 33.4968 35.9887C33.3215 36.0647 33.1683 36.1588 33.0374 36.2709C32.9126 36.3819 32.8152 36.5226 32.7454 36.693C32.6805 36.8561 32.6467 37.0515 32.6439 37.279C32.6462 37.4993 32.6837 37.7573 32.7565 38.053C32.8486 38.4209 32.9636 38.7058 33.1012 38.9078C33.2389 39.1097 33.3879 39.2528 33.5483 39.3371C33.7086 39.4215 33.8735 39.4608 34.0427 39.4552C34.2169 39.4424 34.3848 39.4119 34.5462 39.3636C34.6578 39.3181 34.7551 39.2467 34.8383 39.1496C34.9055 39.068 34.9609 38.957 35.0047 38.8166C35.0486 38.6762 35.0469 38.4937 34.9996 38.269L36.1083 38.0199C36.0456 38.4033 35.9422 38.7185 35.798 38.9655C35.6527 39.2063 35.5051 39.4003 35.3553 39.5474C35.1783 39.7183 34.9936 39.8465 34.8011 39.932C34.5586 40.0203 34.3391 40.0792 34.1427 40.1086C33.9452 40.1319 33.7626 40.1336 33.595 40.1137C33.4275 40.0938 33.2699 40.0594 33.1222 40.0106C32.9746 39.9618 32.832 39.9058 32.6944 39.8425C32.605 39.8021 32.4999 39.7266 32.3789 39.6162C32.2579 39.5058 32.1386 39.3699 32.0209 39.2084C31.9021 39.0409 31.7953 38.8523 31.7003 38.6425C31.6054 38.4328 31.5429 38.2109 31.5129 37.9767C31.4818 37.7364 31.4934 37.4884 31.5477 37.2326C31.6021 36.9768 31.716 36.7195 31.8897 36.4609C32.1532 36.0725 32.4591 35.7961 32.8076 35.6317C33.161 35.4602 33.5069 35.3689 33.8454 35.3577C34.1828 35.3404 34.493 35.3817 34.776 35.4815C35.059 35.5813 35.268 35.7073 35.4028 35.8593C35.5377 36.0113 35.6379 36.1286 35.7034 36.2113C35.7739 36.2867 35.8258 36.3467 35.8591 36.391C35.8974 36.4282 35.9279 36.4573 35.9506 36.4784C35.9784 36.4923 36.017 36.5136 36.0663 36.5425C36.1024 36.5674 36.1451 36.5943 36.1945 36.6232C36.2367 36.647 36.2861 36.6759 36.3427 36.7097C36.3993 36.7436 36.4626 36.7793 36.5325 36.8171ZM36.2419 35.9998L37.9298 35.7114C37.8999 36.1015 37.8844 36.4322 37.8834 36.7036C37.8884 36.9738 37.9009 37.1985 37.921 37.3778C37.9332 37.5836 37.9582 37.7556 37.996 37.8938C38.0376 38.0186 38.0931 38.1504 38.1625 38.2891C38.2214 38.4045 38.3019 38.5349 38.404 38.6803C38.5061 38.8256 38.6327 38.9666 38.7836 39.103C38.7059 39.0919 38.6232 39.0881 38.5356 39.0914C38.4479 39.0948 38.3669 39.1001 38.2925 39.1073C38.206 39.1167 38.1205 39.1323 38.0362 39.1539C37.9518 39.1756 37.8589 39.202 37.7574 39.2331C37.6741 39.2608 37.5732 39.295 37.4544 39.3355C37.3357 39.376 37.2119 39.4238 37.0832 39.4788C37.1248 39.1874 37.1516 38.9366 37.1638 38.7263C37.1821 38.5149 37.1912 38.3398 37.1912 38.2011C37.1867 38.038 37.1786 37.907 37.167 37.8082C37.1447 37.6862 37.1197 37.5488 37.092 37.3962C37.0631 37.2376 37.0353 37.085 37.0086 36.9385C36.982 36.792 36.9556 36.6644 36.9295 36.5556C36.9023 36.4408 36.8767 36.3697 36.8529 36.3426L36.7446 36.2677C36.7025 36.2438 36.6398 36.2111 36.5565 36.1695C36.4783 36.1207 36.3734 36.0641 36.2419 35.9998ZM36.6352 34.4715C36.7512 34.381 36.876 34.3394 37.0098 34.3466C37.1496 34.3527 37.2639 34.3918 37.3527 34.4639C37.4415 34.536 37.4843 34.6323 37.4809 34.7527C37.4837 34.872 37.4066 35.0027 37.2496 35.1447C37.0915 35.2807 36.9425 35.3457 36.8027 35.3396C36.6629 35.3335 36.5566 35.2867 36.4839 35.199C36.4112 35.1113 36.3815 35.0001 36.3948 34.8653C36.407 34.7243 36.4871 34.5931 36.6352 34.4715ZM41.3419 37.7766C41.5128 37.7455 41.6682 37.6983 41.808 37.635C41.9245 37.5823 42.0316 37.5123 42.1293 37.4252C42.2319 37.3308 42.2887 37.2101 42.2998 37.0631C42.4263 37.0653 42.534 37.0677 42.6228 37.0705C42.7104 37.0672 42.7859 37.066 42.8492 37.0671C42.9196 37.0732 42.9798 37.0749 43.0298 37.0721C43.0808 37.0754 43.141 37.0771 43.2104 37.077C43.2737 37.0781 43.3497 37.0801 43.4385 37.0828C43.5322 37.0784 43.6424 37.0772 43.7689 37.0794C43.6751 37.0839 43.5822 37.1103 43.4901 37.1586C43.4041 37.2057 43.3217 37.2554 43.2429 37.3076C43.153 37.3681 43.0709 37.4366 42.9966 37.5132C42.9483 37.5599 42.8942 37.6265 42.8343 37.713C42.7805 37.7985 42.6956 37.8865 42.5797 37.9769C42.4637 38.0674 42.3034 38.1565 42.0986 38.2442C41.8989 38.3247 41.6331 38.3889 41.3013 38.4366C40.9023 38.4966 40.5569 38.487 40.265 38.4077C39.972 38.3223 39.7259 38.2 39.5267 38.0408C39.3263 37.8755 39.169 37.6866 39.0546 37.4741C38.9403 37.2616 38.8623 37.0582 38.8206 36.864C38.779 36.6698 38.7997 36.4548 38.8829 36.219C38.9661 35.9831 39.1014 35.7567 39.2889 35.5397C39.4826 35.3216 39.7281 35.1287 40.0254 34.9611C40.3217 34.7873 40.6591 34.666 41.0375 34.5971C41.2572 34.5571 41.4636 34.5479 41.6567 34.5695C41.8548 34.5839 42.038 34.62 42.2061 34.6776C42.3804 34.7342 42.5355 34.8068 42.6714 34.8956C42.8063 34.9783 42.9234 35.0673 43.0227 35.1627C43.1232 35.2642 43.2125 35.3741 43.2908 35.4923C43.3596 35.5932 43.4221 35.7111 43.4782 35.846C43.5342 35.9808 43.5695 36.1226 43.5839 36.2713C43.1223 36.3679 42.7486 36.4454 42.4628 36.5037C42.1832 36.5609 41.964 36.604 41.8053 36.6329L41.3933 36.7079L41.082 36.7645C40.9722 36.7845 40.8293 36.8137 40.6534 36.852C40.4775 36.8903 40.2625 36.9389 40.0084 36.9978C40.0833 37.2364 40.1941 37.4117 40.3406 37.5238C40.4921 37.6286 40.6442 37.7018 40.7968 37.7434C40.9688 37.7878 41.1505 37.7988 41.3419 37.7766ZM40.218 36.2786C40.4155 36.2553 40.5789 36.235 40.7082 36.2178C40.8436 36.1994 40.9546 36.1855 41.0411 36.1761C41.1338 36.1655 41.2076 36.1552 41.2625 36.1452L41.4914 36.1036C41.644 36.0758 41.9262 36.015 42.3379 35.9211C42.2707 35.6559 42.1755 35.462 42.0523 35.3394C41.9352 35.2156 41.8186 35.1297 41.7026 35.0814C41.5672 35.0304 41.4252 35.0121 41.2765 35.0266C40.8808 35.1049 40.5998 35.2412 40.4334 35.4354C40.2731 35.6285 40.2013 35.9096 40.218 36.2786ZM44.5123 37.6819C44.5184 37.4727 44.5166 37.2901 44.5072 37.1342C44.5027 36.9711 44.4971 36.8365 44.4905 36.7305C44.4804 36.6062 44.4677 36.5014 44.4521 36.4159C44.4271 36.3133 44.3988 36.1923 44.3671 36.053C44.3405 35.9065 44.3083 35.7642 44.2705 35.6261C44.2377 35.4807 44.2052 35.3542 44.173 35.2465C44.1397 35.1328 44.1095 35.0532 44.0823 35.0077C44.049 34.9633 44.0059 34.9175 43.9532 34.8704C43.8489 34.7822 43.7054 34.7042 43.5229 34.6366C43.6577 34.5805 43.7723 34.5344 43.8666 34.4983C43.9659 34.455 44.0475 34.4181 44.1113 34.3876C44.1801 34.3498 44.2403 34.3168 44.2919 34.2885C44.3374 34.2613 44.392 34.2324 44.4558 34.2019C44.5085 34.1797 44.5729 34.1522 44.6489 34.1195C44.7249 34.0867 44.8126 34.0487 44.9119 34.0054L45.0361 34.8435C45.1892 34.576 45.3559 34.366 45.5362 34.2133C45.7165 34.0607 45.8907 33.9439 46.0588 33.8628C46.2491 33.7651 46.4419 33.6985 46.6373 33.6629C46.8836 33.6307 47.1167 33.6293 47.3364 33.6586C47.5623 33.6869 47.7598 33.7329 47.9291 33.7967C48.1033 33.8532 48.2482 33.9215 48.3636 34.0013C48.479 34.0812 48.5526 34.1561 48.5842 34.226C48.7008 34.4507 48.7591 34.6671 48.7591 34.8752C48.7581 35.0772 48.7442 35.2783 48.7176 35.4787C48.696 35.6718 48.6805 35.8638 48.6711 36.0547C48.6678 36.2444 48.7192 36.44 48.8252 36.6414C48.8597 36.6919 48.8941 36.7424 48.9285 36.7929C48.9618 36.8373 49.0012 36.8805 49.0467 36.9227C49.0922 36.9649 49.1422 36.9968 49.1965 37.0184C49.1283 37.0245 49.0606 37.0337 48.9935 37.0459C48.9252 37.052 48.8631 37.057 48.807 37.0609C48.7388 37.067 48.6766 37.072 48.6206 37.0759C48.5584 37.0809 48.4755 37.0929 48.3717 37.1118C48.1947 37.144 47.9217 37.2032 47.5527 37.2892C47.5843 37.1511 47.6076 37.0365 47.6226 36.9455C47.6425 36.8472 47.6597 36.7684 47.6741 36.7091C47.6863 36.6375 47.6952 36.5823 47.7007 36.5434C47.7418 36.3531 47.7478 36.1439 47.7189 35.9158C47.6961 35.6867 47.6392 35.4606 47.5482 35.2375C47.5154 35.1615 47.4677 35.0725 47.4049 34.9704C47.3422 34.8683 47.2648 34.772 47.1727 34.6816C47.0866 34.5901 46.9881 34.5166 46.8771 34.4611C46.7722 34.4045 46.6577 34.3812 46.5334 34.3912C46.4091 34.4013 46.2773 34.4568 46.138 34.5578C46.0049 34.6577 45.8706 34.8209 45.7353 35.0473C45.6371 35.2354 45.5731 35.4552 45.5432 35.7065C45.5127 35.9202 45.513 36.1818 45.5441 36.4914C45.5742 36.795 45.6747 37.1392 45.8457 37.5243C45.758 37.5277 45.6775 37.536 45.6043 37.5493C45.5299 37.5566 45.4678 37.5616 45.4178 37.5643C45.3557 37.5693 45.2997 37.5732 45.2497 37.576C45.1948 37.586 45.1332 37.5941 45.0649 37.6002C45.0039 37.6113 44.9276 37.6252 44.8361 37.6419C44.7434 37.6524 44.6355 37.6658 44.5123 37.6819ZM54.4312 33.559C54.3558 33.5601 54.2625 33.5676 54.1516 33.5815C54.0467 33.5943 53.9454 33.6096 53.8478 33.6273C53.7379 33.6473 53.6225 33.6715 53.5015 33.6998C53.3745 33.7293 53.2474 33.7587 53.1203 33.7881C53.0116 33.8142 52.8881 33.8462 52.75 33.8839C52.6168 33.9145 52.4872 33.9475 52.3613 33.983C52.4057 33.9497 52.4423 33.9084 52.4711 33.859C52.5061 33.8085 52.5349 33.7591 52.5577 33.7108C52.5793 33.6564 52.5973 33.5996 52.6117 33.5402C52.6256 33.4431 52.6025 33.3338 52.5426 33.2123C52.4815 33.0847 52.3922 32.9748 52.2745 32.8827C52.163 32.7895 52.0284 32.7257 51.8708 32.6914C51.7182 32.6498 51.5598 32.6628 51.3955 32.7306C51.2202 32.8066 51.0671 32.9007 50.9361 33.0128C50.8113 33.1238 50.714 33.2645 50.6441 33.4349C50.5792 33.598 50.5454 33.7934 50.5426 34.0209C50.5449 34.2412 50.5824 34.4992 50.6552 34.7949C50.7474 35.1628 50.8623 35.4477 50.9999 35.6497C51.1376 35.8516 51.2866 35.9947 51.447 36.0791C51.6074 36.1634 51.7722 36.2027 51.9414 36.1971C52.1156 36.1843 52.2835 36.1538 52.445 36.1055C52.5565 36.06 52.6539 35.9886 52.7371 35.8915C52.8042 35.8099 52.8597 35.6989 52.9035 35.5585C52.9473 35.4182 52.9456 35.2356 52.8984 35.0109L54.007 34.7618C53.9444 35.1452 53.8409 35.4604 53.6967 35.7074C53.5514 35.9482 53.4038 36.1422 53.254 36.2893C53.0771 36.4602 52.8923 36.5884 52.6998 36.6739C52.4573 36.7622 52.2379 36.8211 52.0414 36.8505C51.8439 36.8739 51.6613 36.8756 51.4938 36.8556C51.3262 36.8357 51.1686 36.8013 51.021 36.7525C50.8734 36.7037 50.7307 36.6477 50.5931 36.5845C50.5038 36.544 50.3986 36.4685 50.2776 36.3581C50.1566 36.2477 50.0373 36.1118 49.9196 35.9504C49.8008 35.7828 49.694 35.5942 49.5991 35.3844C49.5041 35.1747 49.4417 34.9528 49.4116 34.7186C49.3805 34.4783 49.3921 34.2303 49.4465 33.9745C49.5008 33.7187 49.6148 33.4615 49.7884 33.2028C50.0519 32.8144 50.3578 32.538 50.7063 32.3736C51.0597 32.2021 51.4057 32.1108 51.7441 32.0996C52.0815 32.0823 52.3917 32.1236 52.6747 32.2234C52.9577 32.3232 53.1667 32.4492 53.3016 32.6012C53.4364 32.7532 53.5366 32.8705 53.6021 32.9532C53.6726 33.0286 53.7245 33.0886 53.7578 33.1329C53.7961 33.1701 53.8266 33.1992 53.8494 33.2203C53.8771 33.2342 53.9157 33.2555 53.9651 33.2844C54.0011 33.3094 54.0439 33.3363 54.0933 33.3651C54.1354 33.389 54.1848 33.4178 54.2414 33.4516C54.298 33.4855 54.3613 33.5212 54.4312 33.559ZM56.9976 34.9268C57.1685 34.8957 57.3239 34.8485 57.4637 34.7852C57.5802 34.7325 57.6873 34.6625 57.7849 34.5754C57.8876 34.481 57.9444 34.3603 57.9555 34.2133C58.082 34.2155 58.1896 34.218 58.2784 34.2207C58.3661 34.2174 58.4416 34.2162 58.5048 34.2173C58.5753 34.2234 58.6355 34.2251 58.6854 34.2223C58.7365 34.2256 58.7967 34.2273 58.866 34.2273C58.9293 34.2284 59.0053 34.2303 59.0941 34.233C59.1879 34.2286 59.298 34.2274 59.4245 34.2296C59.3308 34.2341 59.2378 34.2605 59.1457 34.3088C59.0597 34.356 58.9773 34.4056 58.8986 34.4578C58.8087 34.5183 58.7266 34.5869 58.6522 34.6634C58.604 34.7101 58.5499 34.7767 58.49 34.8632C58.4362 34.9487 58.3513 35.0367 58.2353 35.1271C58.1194 35.2176 57.959 35.3067 57.7543 35.3944C57.5545 35.4749 57.2888 35.5391 56.9569 35.5869C56.558 35.6469 56.2126 35.6372 55.9207 35.5579C55.6277 35.4725 55.3816 35.3502 55.1823 35.191C54.982 35.0257 54.8246 34.8368 54.7103 34.6243C54.5959 34.4118 54.5179 34.2084 54.4763 34.0142C54.4346 33.82 54.4554 33.605 54.5386 33.3692C54.6217 33.1333 54.7571 32.9069 54.9446 32.6899C55.1382 32.4718 55.3837 32.2789 55.6811 32.1113C55.9774 31.9375 56.3147 31.8162 56.6931 31.7473C56.9129 31.7073 57.1193 31.6981 57.3124 31.7197C57.5105 31.7341 57.6936 31.7702 57.8618 31.8278C58.036 31.8844 58.1911 31.9571 58.3271 32.0458C58.4619 32.1285 58.579 32.2175 58.6784 32.3129C58.7788 32.4144 58.8682 32.5243 58.9465 32.6425C59.0153 32.7434 59.0777 32.8614 59.1338 32.9962C59.1899 33.131 59.2251 33.2728 59.2396 33.4215C58.778 33.5181 58.4043 33.5956 58.1185 33.6539C57.8388 33.7111 57.6197 33.7542 57.461 33.7831L57.049 33.8581L56.7377 33.9147C56.6278 33.9347 56.485 33.9639 56.3091 34.0022C56.1332 34.0405 55.9182 34.0891 55.664 34.148C55.739 34.3866 55.8497 34.5619 55.9962 34.674C56.1478 34.7788 56.2998 34.852 56.4524 34.8936C56.6244 34.938 56.8062 34.949 56.9976 34.9268ZM55.8736 33.4288C56.0712 33.4055 56.2346 33.3852 56.3639 33.368C56.4993 33.3496 56.6102 33.3357 56.6968 33.3263C56.7895 33.3157 56.8633 33.3054 56.9182 33.2954L57.1471 33.2538C57.2997 33.226 57.5818 33.1652 57.9935 33.0713C57.9263 32.8061 57.8311 32.6122 57.7079 32.4896C57.5908 32.3659 57.4743 32.2799 57.3583 32.2316C57.2229 32.1806 57.0808 32.1623 56.9321 32.1768C56.5365 32.2551 56.2555 32.3914 56.089 32.5856C55.9287 32.7788 55.8569 33.0598 55.8736 33.4288Z" fill="#66D9E8"/>
<path d="M27.264 52.3595C27.4604 52.33 27.6319 52.302 27.7784 52.2753C27.9237 52.2426 28.0422 52.2178 28.1337 52.2012L28.3993 52.1528C28.4653 52.1345 28.5471 52.1165 28.6448 52.0987C28.7302 52.0831 28.834 52.0642 28.9561 52.042C29.0781 52.0198 29.2191 51.9973 29.3789 51.9745C29.4588 52.1365 29.5443 52.2944 29.6353 52.4481C29.7314 52.5945 29.8155 52.7274 29.8876 52.8467C29.9764 52.9882 30.0636 53.1205 30.149 53.2437C30.2345 53.3668 30.3372 53.5153 30.4571 53.6889C30.5592 53.8343 30.6833 54.0135 30.8293 54.2265C30.9741 54.4335 31.1434 54.6707 31.3371 54.9381C31.3698 54.7366 31.3992 54.5516 31.4253 54.3829C31.4574 54.2131 31.4843 54.0663 31.5059 53.9426C31.5303 53.7994 31.5477 53.6701 31.5583 53.5547C31.5688 53.4393 31.5779 53.2989 31.5856 53.1335C31.5917 52.9937 31.5958 52.8258 31.598 52.6299C31.6063 52.433 31.609 52.2055 31.6062 51.9474C31.7832 51.9152 31.9419 51.8863 32.0823 51.8608C32.2227 51.8352 32.3442 51.8099 32.4468 51.785C32.5628 51.7638 32.666 51.7419 32.7564 51.7191C32.8541 51.7014 32.9842 51.6714 33.1468 51.6292C33.285 51.5914 33.4694 51.5484 33.7003 51.5C33.9361 51.4445 34.2263 51.3759 34.5709 51.2943C34.4593 51.4092 34.3722 51.5196 34.3096 51.6256C34.2519 51.7244 34.2078 51.8112 34.1773 51.8861C34.1429 51.9744 34.1263 52.0562 34.1274 52.1317C34.1263 52.195 34.1396 52.3376 34.1674 52.5595C34.2013 52.7803 34.2399 53.0445 34.2833 53.3519C34.3316 53.6521 34.3838 53.9736 34.44 54.3165C34.5022 54.6583 34.5641 54.9812 34.6258 55.2853C34.6874 55.5894 34.7449 55.8532 34.7982 56.0768C34.8565 56.2932 34.9065 56.4292 34.9481 56.4846C35.0042 56.5501 35.0777 56.625 35.1687 56.7093C35.2514 56.7826 35.3547 56.8647 35.4784 56.9556C35.6083 57.0455 35.7739 57.1415 35.9754 57.2435C35.6968 57.3068 35.4635 57.3588 35.2754 57.3993C35.0934 57.4387 34.9419 57.4726 34.821 57.501C34.6817 57.5326 34.5694 57.5562 34.4839 57.5718C34.3924 57.5884 34.2678 57.6143 34.1102 57.6493C33.9709 57.6809 33.7864 57.724 33.5567 57.7784C33.3259 57.8267 33.029 57.8933 32.6662 57.9783C32.7338 57.8651 32.7954 57.753 32.8509 57.642C32.9063 57.531 32.9513 57.4314 32.9857 57.3432C33.03 57.2405 33.0658 57.1426 33.093 57.0493C33.1146 56.9256 33.1098 56.7089 33.0787 56.3993C33.0553 56.1324 33.0053 55.7537 32.9286 55.2632C32.8508 54.7666 32.7303 54.1043 32.567 53.2765C32.4855 53.4868 32.4161 53.6949 32.359 53.9008C32.3069 54.0994 32.2612 54.2812 32.2218 54.446C32.1808 54.6363 32.1448 54.8194 32.1137 54.9953C32.0838 55.1774 32.0541 55.3782 32.0248 55.598C31.996 55.7861 31.9611 56.01 31.92 56.2697C31.8851 56.5283 31.8425 56.8135 31.792 57.1254L31.4475 57.207C31.3542 56.9717 31.2654 56.7609 31.181 56.5745C31.0955 56.3819 31.0156 56.2199 30.9412 56.0884C30.8563 55.9336 30.7747 55.7972 30.6964 55.679C30.612 55.5619 30.5188 55.4307 30.4166 55.2853C30.3251 55.1633 30.2138 55.0196 30.0828 54.8543C29.9579 54.6878 29.8139 54.5028 29.6507 54.2992C29.703 54.9329 29.7586 55.4461 29.8175 55.839C29.8753 56.2257 29.9297 56.5248 29.9808 56.7362C30.0397 56.9903 30.0919 57.1731 30.1374 57.2847C30.1929 57.3818 30.272 57.4872 30.3747 57.6009C30.4618 57.6986 30.5772 57.8131 30.721 57.9446C30.8697 58.0689 31.0554 58.2053 31.2779 58.354C31.1436 58.3784 31.0032 58.404 30.8568 58.4307C30.7103 58.4573 30.5766 58.4848 30.4556 58.5131C30.3102 58.5459 30.1673 58.5751 30.027 58.6006C29.8816 58.6334 29.7123 58.6736 29.5193 58.7214C29.3506 58.7647 29.1483 58.8142 28.9125 58.8697C28.6767 58.9252 28.4059 58.9966 28.1002 59.0838C28.2189 58.9739 28.3138 58.8715 28.3848 58.7766C28.4547 58.6756 28.5079 58.5871 28.5445 58.511C28.5911 58.4206 28.6225 58.3329 28.6385 58.248C28.648 58.1958 28.6438 58.0862 28.626 57.9192C28.6143 57.7511 28.5929 57.5469 28.5618 57.3066C28.5368 57.0653 28.5006 56.7975 28.4534 56.5035C28.4123 56.2083 28.3676 55.9106 28.3192 55.6104C28.2759 55.303 28.2312 55.0053 28.185 54.7173C28.1378 54.4232 28.0931 54.1602 28.0509 53.9283C28.0136 53.6891 27.9806 53.4902 27.9517 53.3315C27.9228 53.1728 27.9045 53.0721 27.8967 53.0294C27.8617 52.9412 27.8176 52.8546 27.7643 52.7697C27.7193 52.6959 27.6555 52.6224 27.5728 52.5492C27.4901 52.476 27.3872 52.4127 27.264 52.3595Z" fill="#A7C957"/>
<path d="M35.3095 53.3259C35.4738 53.3275 35.6156 53.3269 35.7349 53.3241C35.8592 53.3141 35.9651 53.3074 36.0528 53.3041C36.1527 53.2985 36.2398 53.2921 36.3142 53.2849C36.3885 53.2776 36.4751 53.2682 36.5739 53.2565C36.7398 53.2326 36.9717 53.1904 37.2697 53.1299C37.0904 53.1499 36.9584 53.2212 36.8735 53.3438C36.7936 53.4593 36.7409 53.5855 36.7154 53.7226C36.6822 53.8863 36.6808 54.0694 36.7114 54.2719C36.7481 54.5427 36.7986 54.7857 36.863 55.001C36.9324 55.2091 37.0176 55.3828 37.1187 55.522C37.2247 55.6541 37.3484 55.745 37.4899 55.795C37.6303 55.8388 37.7985 55.8271 37.9943 55.7599C38.1902 55.6927 38.33 55.5947 38.4138 55.466C38.5025 55.33 38.5563 55.1752 38.5751 55.0015C38.5929 54.8217 38.5853 54.6245 38.5525 54.4097C38.5259 54.1939 38.4945 53.9694 38.4584 53.7364C38.4161 53.5045 38.3831 53.3402 38.3592 53.2437C38.3403 53.1399 38.325 53.0733 38.3134 53.0439C38.3017 53.0145 38.2904 53.004 38.2793 53.0123C38.2671 53.0145 38.249 53.002 38.2251 52.9748C38.2085 52.9527 38.1857 52.9316 38.1569 52.9116C38.1341 52.8905 38.1047 52.8675 38.0686 52.8425C38.0315 52.8115 37.9912 52.781 37.9479 52.751C38.1077 52.7282 38.2492 52.7088 38.3724 52.6927C38.5006 52.6693 38.608 52.6529 38.6945 52.6435C38.7933 52.6318 38.8798 52.6224 38.9542 52.6151C39.0225 52.609 39.1126 52.6021 39.2247 52.5943C39.3185 52.5898 39.4397 52.5803 39.5884 52.5659C39.7371 52.5514 39.9144 52.5381 40.1203 52.5258C39.9855 52.5819 39.8809 52.6482 39.8065 52.7248C39.7322 52.8014 39.6762 52.8747 39.6384 52.9446C39.5957 53.0217 39.5694 53.1022 39.5594 53.186C39.56 53.2931 39.5889 53.4518 39.6461 53.6621C39.6927 53.8491 39.7705 54.1029 39.8793 54.4236C39.9881 54.7443 40.1433 55.1638 40.3448 55.682L39.6999 56.244L39.3317 55.053C39.2092 55.3843 39.0622 55.6506 38.8908 55.8521C38.7243 56.0463 38.5623 56.1956 38.4048 56.3C38.2189 56.4221 38.0325 56.5065 37.8455 56.5531C37.5953 56.5987 37.3758 56.6229 37.1871 56.6257C37.0035 56.6213 36.8425 56.6033 36.7044 56.5717C36.5662 56.5401 36.4513 56.4979 36.3598 56.4452C36.2732 56.3853 36.2049 56.3221 36.155 56.2555C36.0417 56.1185 35.9604 55.9315 35.911 55.6946C35.8604 55.4515 35.8257 55.2088 35.8068 54.9663C35.7868 54.7177 35.7737 54.4899 35.7675 54.2829C35.7614 54.076 35.7455 53.937 35.72 53.866C35.6978 53.8132 35.6684 53.7555 35.6317 53.6929C35.5973 53.6424 35.5557 53.5869 35.5069 53.5264C35.4569 53.4598 35.3911 53.393 35.3095 53.3259ZM44.0968 50.6764C44.0663 50.8207 44.0397 50.9516 44.017 51.0693C44.0004 51.1858 43.9846 51.2896 43.9696 51.3806C43.9569 51.4838 43.945 51.5742 43.9339 51.6519C43.925 51.7418 43.9153 51.8445 43.9048 51.9599C43.8921 52.0631 43.8746 52.1924 43.8524 52.3478C43.8353 52.4959 43.8139 52.6732 43.7885 52.8797C43.6863 52.5956 43.5556 52.3797 43.3963 52.2322C43.2359 52.0785 43.0797 51.9651 42.9276 51.8918C42.7489 51.8109 42.5636 51.7626 42.3716 51.7471C42.032 51.7522 41.7951 51.8016 41.6608 51.8954C41.5265 51.9892 41.4444 52.0925 41.4145 52.2051C41.3979 52.2523 41.3804 52.3122 41.3621 52.3849C41.3488 52.4504 41.3391 52.5184 41.333 52.5888C41.333 52.6582 41.3422 52.7259 41.3605 52.7919C41.3788 52.858 41.4163 52.9079 41.4729 52.9417C41.509 52.9667 41.5961 52.995 41.7343 53.0266C41.8714 53.0521 42.0345 53.0823 42.2237 53.1172C42.4179 53.1449 42.6224 53.177 42.8372 53.2136C43.058 53.2491 43.2667 53.2868 43.4631 53.3267C43.6596 53.3666 43.8316 53.411 43.9792 53.4598C44.1268 53.5086 44.2275 53.5596 44.2814 53.6128C44.3291 53.6672 44.3838 53.7424 44.4454 53.8384C44.512 53.9271 44.5655 54.0309 44.6061 54.1496C44.6516 54.2612 44.6799 54.3821 44.691 54.5125C44.7072 54.6357 44.6958 54.7639 44.657 54.8971C44.6182 55.0302 44.5411 55.1609 44.4257 55.2891C44.3164 55.4162 44.158 55.5333 43.9505 55.6405C43.7086 55.7665 43.4653 55.8329 43.2206 55.8396C42.9759 55.8463 42.7461 55.8313 42.5314 55.7948C42.3228 55.7571 42.1391 55.718 41.9804 55.6775C41.8206 55.6309 41.7112 55.6193 41.6524 55.6426C41.5875 55.667 41.5173 55.7145 41.4419 55.785C41.3664 55.8555 41.2946 55.9285 41.2263 56.0039C41.1631 56.0722 41.1085 56.1357 41.0624 56.1946C41.0153 56.2473 40.9906 56.2676 40.9883 56.2554C40.9861 56.2431 40.9886 56.2049 40.9958 56.1405C41.0091 56.075 41.0202 55.9973 41.0291 55.9074C41.0429 55.8103 41.0526 55.7077 41.0581 55.5995C41.0686 55.484 41.0711 55.3764 41.0656 55.2765C41.0633 55.1949 41.0608 55.0945 41.058 54.9752C41.0513 54.8692 41.0438 54.7413 41.0354 54.5915C41.0321 54.4345 41.0262 54.2464 41.0179 54.0272C41.0773 54.1803 41.145 54.3099 41.221 54.4158C41.3032 54.5207 41.3795 54.6109 41.45 54.6863C41.5349 54.7717 41.614 54.8425 41.6872 54.8985C41.7943 54.9673 41.9156 55.0272 42.051 55.0782C42.1925 55.1281 42.3323 55.1689 42.4705 55.2005C42.6076 55.226 42.7352 55.2343 42.8534 55.2254C42.9716 55.2165 43.067 55.1865 43.1397 55.1354C43.2124 55.0844 43.2673 55.005 43.3045 54.8973C43.3477 54.7886 43.371 54.674 43.3743 54.5536C43.3776 54.4332 43.3668 54.3216 43.3418 54.219C43.3157 54.1102 43.2721 54.0267 43.211 53.9685C43.1666 53.9324 43.0712 53.893 42.9247 53.8503C42.7843 53.8065 42.6153 53.7616 42.4178 53.7156C42.2263 53.6685 42.0221 53.6205 41.8051 53.5717C41.5943 53.5218 41.3926 53.4703 41.2 53.417C41.0124 53.3566 40.8535 53.2973 40.723 53.239C40.5976 53.1736 40.5227 53.1084 40.4983 53.0435C40.4683 52.948 40.4397 52.8429 40.4125 52.728C40.3842 52.6071 40.3686 52.4869 40.3658 52.3676C40.368 52.2411 40.3896 52.1174 40.4306 51.9964C40.4778 51.8743 40.5588 51.765 40.6736 51.6684C40.7502 51.604 40.8564 51.5469 40.9924 51.4969C41.1283 51.4469 41.2817 51.4064 41.4526 51.3753C41.6224 51.3381 41.8005 51.3119 41.987 51.2969C42.1723 51.2758 42.3496 51.2624 42.5188 51.2569C42.6931 51.2441 42.8501 51.2407 42.9899 51.2468C43.1359 51.2517 43.2477 51.2598 43.3254 51.2708C43.4164 51.2858 43.5085 51.2722 43.6017 51.23C43.6838 51.1961 43.7681 51.1398 43.8547 51.061C43.9412 50.9822 44.0219 50.854 44.0968 50.6764ZM47.4901 53.9368C47.661 53.9057 47.8163 53.8585 47.9562 53.7952C48.0727 53.7425 48.1798 53.6725 48.2774 53.5854C48.38 53.491 48.4369 53.3703 48.448 53.2233C48.5745 53.2255 48.6821 53.228 48.7709 53.2307C48.8586 53.2274 48.934 53.2262 48.9973 53.2273C49.0678 53.2334 49.128 53.2351 49.1779 53.2323C49.229 53.2356 49.2892 53.2373 49.3585 53.2373C49.4218 53.2384 49.4978 53.2403 49.5866 53.243C49.6804 53.2386 49.7905 53.2374 49.917 53.2396C49.8233 53.2441 49.7303 53.2705 49.6382 53.3188C49.5522 53.3659 49.4698 53.4156 49.391 53.4678C49.3012 53.5283 49.219 53.5969 49.1447 53.6734C49.0964 53.7201 49.0424 53.7867 48.9824 53.8732C48.9286 53.9587 48.8438 54.0467 48.7278 54.1371C48.6118 54.2276 48.4515 54.3167 48.2468 54.4044C48.047 54.4849 47.7812 54.5491 47.4494 54.5968C47.0505 54.6569 46.7051 54.6472 46.4132 54.5679C46.1202 54.4825 45.874 54.3602 45.6748 54.201C45.4745 54.0357 45.3171 53.8468 45.2028 53.6343C45.0884 53.4218 45.0104 53.2184 44.9687 53.0242C44.9271 52.83 44.9479 52.615 45.031 52.3792C45.1142 52.1433 45.2496 51.9169 45.4371 51.6999C45.6307 51.4818 45.8762 51.2889 46.1736 51.1213C46.4699 50.9475 46.8072 50.8262 47.1856 50.7573C47.4054 50.7173 47.6118 50.7081 47.8049 50.7297C48.003 50.7441 48.1861 50.7802 48.3542 50.8378C48.5285 50.8944 48.6836 50.9671 48.8196 51.0558C48.9544 51.1385 49.0715 51.2275 49.1709 51.3229C49.2713 51.4244 49.3607 51.5343 49.4389 51.6525C49.5078 51.7534 49.5702 51.8713 49.6263 52.0062C49.6824 52.141 49.7176 52.2828 49.7321 52.4315C49.2704 52.5281 48.8967 52.6056 48.611 52.6639C48.3313 52.7211 48.1121 52.7642 47.9535 52.7931L47.5415 52.8681L47.2302 52.9247C47.1203 52.9447 46.9774 52.9739 46.8015 53.0122C46.6257 53.0505 46.4106 53.0991 46.1565 53.158C46.2315 53.3966 46.3422 53.5719 46.4887 53.684C46.6402 53.7888 46.7923 53.862 46.9449 53.9036C47.1169 53.948 47.2986 53.959 47.4901 53.9368ZM46.3661 52.4388C46.5637 52.4155 46.7271 52.3952 46.8564 52.378C46.9917 52.3596 47.1027 52.3457 47.1893 52.3363C47.2819 52.3257 47.3557 52.3154 47.4107 52.3054L47.6396 52.2638C47.7921 52.236 48.0743 52.1752 48.486 52.0813C48.4188 51.8161 48.3236 51.6222 48.2004 51.4996C48.0833 51.3759 47.9667 51.2899 47.8508 51.2416C47.7154 51.1906 47.5733 51.1723 47.4246 51.1868C47.029 51.2651 46.7479 51.4014 46.5815 51.5956C46.4212 51.7888 46.3494 52.0698 46.3661 52.4388ZM49.8391 50.6811C50.0033 50.6827 50.1451 50.6821 50.2644 50.6793C50.3887 50.6693 50.4947 50.6626 50.5824 50.6593C50.6822 50.6537 50.7694 50.6473 50.8437 50.6401C50.9181 50.6328 51.0046 50.6234 51.1034 50.6117C51.2693 50.5878 51.5012 50.5456 51.7992 50.4851C51.62 50.5051 51.4879 50.5764 51.4031 50.699C51.3232 50.8145 51.2705 50.9407 51.245 51.0778C51.2117 51.2415 51.2104 51.4246 51.2409 51.6271C51.2776 51.8979 51.3282 52.1409 51.3926 52.3562C51.462 52.5643 51.5472 52.738 51.6482 52.8772C51.7542 53.0093 51.878 53.1002 52.0195 53.1501C52.1599 53.194 52.328 53.1823 52.5239 53.1151C52.7197 53.0479 52.8596 52.9499 52.9433 52.8212C53.0321 52.6852 53.0859 52.5304 53.1047 52.3567C53.1224 52.1769 53.1149 51.9797 53.0821 51.7649C53.0554 51.5491 53.024 51.3246 52.9879 51.0916C52.9457 50.8596 52.9126 50.6954 52.8888 50.5989C52.8699 50.4951 52.8546 50.4285 52.8429 50.3991C52.8313 50.3697 52.8199 50.3592 52.8088 50.3675C52.7966 50.3697 52.7786 50.3572 52.7547 50.33C52.738 50.3079 52.7153 50.2868 52.6864 50.2668C52.6637 50.2457 52.6343 50.2227 52.5982 50.1977C52.561 50.1667 52.5208 50.1362 52.4775 50.1062C52.6373 50.0834 52.7788 50.064 52.902 50.0479C53.0301 50.0245 53.1375 50.0081 53.2241 49.9987C53.3228 49.987 53.4094 49.9776 53.4838 49.9703C53.552 49.9642 53.6422 49.9573 53.7543 49.9495C53.848 49.945 53.9693 49.9355 54.118 49.9211C54.2667 49.9066 54.444 49.8933 54.6498 49.881C54.515 49.9371 54.4104 50.0034 54.3361 50.08C54.2617 50.1566 54.2057 50.2299 54.168 50.2998C54.1253 50.3769 54.0989 50.4574 54.089 50.5412C54.0896 50.6483 54.1184 50.807 54.1756 51.0173C54.2223 51.2043 54.3 51.4581 54.4088 51.7788C54.5177 52.0995 54.6728 52.519 54.8744 53.0372L54.2294 53.5992L53.8613 52.4082C53.7387 52.7395 53.5917 53.0058 53.4203 53.2073C53.2539 53.4015 53.0919 53.5508 52.9343 53.6552C52.7485 53.7773 52.562 53.8617 52.3751 53.9083C52.1248 53.9539 51.9054 53.9781 51.7167 53.9809C51.533 53.9765 51.3721 53.9585 51.2339 53.9269C51.0957 53.8953 50.9809 53.8531 50.8893 53.8004C50.8027 53.7405 50.7345 53.6773 50.6845 53.6107C50.5713 53.4737 50.49 53.2867 50.4405 53.0498C50.39 52.8067 50.3553 52.564 50.3363 52.3215C50.3163 52.0729 50.3032 51.8451 50.2971 51.6381C50.2909 51.4312 50.2751 51.2922 50.2495 51.2212C50.2273 51.1684 50.1979 51.1107 50.1613 51.048C50.1269 50.9976 50.0852 50.9421 50.0364 50.8816C49.9864 50.815 49.9207 50.7482 49.8391 50.6811ZM54.7047 49.6629C54.8429 49.6252 54.9597 49.5913 55.0551 49.5613C55.1567 49.5302 55.2399 49.5025 55.3048 49.478C55.3819 49.4514 55.4468 49.427 55.4996 49.4048C55.5534 49.3887 55.6122 49.3653 55.676 49.3348C55.7348 49.3115 55.7992 49.284 55.8691 49.2524C55.944 49.2135 56.0244 49.1705 56.1104 49.1233L56.2672 50.296C56.3625 50.058 56.4887 49.8679 56.6457 49.7258C56.8016 49.5776 56.9539 49.4616 57.1026 49.3778C57.2796 49.2762 57.4616 49.2021 57.6486 49.1554C57.845 49.126 58.0306 49.1237 58.2054 49.1487C58.3547 49.172 58.509 49.2227 58.6682 49.3009C58.8336 49.378 58.9743 49.51 59.0903 49.697C59.2589 49.4456 59.4334 49.2436 59.6137 49.091C59.799 48.9311 59.9655 48.8062 60.1131 48.7163C60.29 48.6147 60.4598 48.5428 60.6224 48.5006C60.841 48.4545 61.0491 48.4545 61.2467 48.5005C61.4503 48.5454 61.6334 48.6161 61.796 48.7126C61.9575 48.803 62.0932 48.9076 62.2031 49.0263C62.3119 49.139 62.3813 49.243 62.4113 49.3384C62.454 49.4694 62.4765 49.645 62.4788 49.8653C62.4799 50.0795 62.4761 50.3009 62.4673 50.5295C62.4573 50.752 62.4477 50.9587 62.4383 51.1496C62.4339 51.3333 62.4414 51.4612 62.4608 51.5333C62.4902 51.591 62.5463 51.6565 62.629 51.7297C62.7034 51.7918 62.8085 51.8673 62.9445 51.956C63.0854 52.0376 63.2816 52.128 63.533 52.2272C63.3366 52.2567 63.1615 52.2822 63.0078 52.3039C62.8602 52.3245 62.7334 52.3381 62.6274 52.3448C62.5032 52.3548 62.3947 52.3651 62.302 52.3756C62.2288 52.389 62.1392 52.399 62.0332 52.4057C61.9466 52.4151 61.832 52.4265 61.6894 52.4399C61.5529 52.4521 61.3951 52.4682 61.2158 52.4882C61.2796 52.4577 61.3285 52.4141 61.3623 52.3575C61.395 52.2948 61.4222 52.2363 61.4438 52.1819C61.4632 52.1153 61.4754 52.0437 61.4804 51.9671C61.4815 51.9039 61.4759 51.804 61.4637 51.6675C61.4515 51.531 61.4328 51.3767 61.4078 51.2047C61.3889 51.0316 61.3623 50.8504 61.3278 50.6612C61.2995 50.4709 61.2667 50.2908 61.2295 50.1211C61.1923 49.9513 61.1518 49.7979 61.1079 49.6608C61.064 49.5238 61.0202 49.4214 60.9763 49.3537C60.9419 49.3032 60.8914 49.2683 60.8248 49.2489C60.7571 49.2233 60.683 49.2148 60.6026 49.2231C60.521 49.2253 60.4422 49.2428 60.3662 49.2756C60.2891 49.3022 60.2233 49.3394 60.169 49.3872C60.1218 49.4399 60.0591 49.5112 59.9809 49.6011C59.9138 49.6827 59.8267 49.7931 59.7196 49.9324C59.6125 50.0717 59.4775 50.2477 59.3144 50.4602C59.3661 50.8481 59.4075 51.1621 59.4386 51.4024C59.4747 51.6354 59.5008 51.8136 59.5169 51.9367C59.5375 52.0843 59.5528 52.1856 59.5628 52.2405C59.5656 52.2905 59.5769 52.3357 59.5969 52.3762C59.6258 52.4655 59.678 52.5443 59.7534 52.6125C59.6769 52.6076 59.5953 52.6098 59.5087 52.6193C59.4283 52.6276 59.3539 52.6348 59.2857 52.6409C59.2052 52.6493 59.1253 52.6607 59.046 52.6751C58.9788 52.6873 58.9061 52.7037 58.8279 52.7243C58.7619 52.7426 58.6812 52.7667 58.5857 52.7967C58.4892 52.8206 58.384 52.8492 58.2703 52.8825C58.3136 52.8431 58.3466 52.7993 58.3693 52.751C58.392 52.7027 58.4092 52.6586 58.4209 52.6186C58.4375 52.5715 58.4486 52.5285 58.4541 52.4896C58.4536 52.4519 58.4497 52.3612 58.4424 52.2175C58.4341 52.0676 58.4152 51.8945 58.3857 51.6981C58.3563 51.5017 58.3191 51.2972 58.2741 51.0847C58.228 50.8661 58.1705 50.6716 58.1017 50.5012C58.0317 50.3248 57.9465 50.1858 57.846 50.0843C57.7517 49.9817 57.6446 49.9476 57.5247 49.982C57.3805 50.0209 57.2376 50.0847 57.0961 50.1735C56.9768 50.2457 56.8528 50.3439 56.7241 50.4682C56.5954 50.5926 56.482 50.7488 56.3838 50.9369C56.4427 51.3991 56.4936 51.7651 56.5364 52.0347C56.5852 52.3033 56.6255 52.5072 56.6572 52.6465C56.6933 52.8102 56.7199 52.922 56.7371 52.9819C56.751 53.0235 56.7741 53.0634 56.8062 53.1017C56.8312 53.135 56.8604 53.1739 56.8937 53.2182C56.9331 53.2615 56.975 53.3012 57.0194 53.3372L55.5503 53.529C55.5947 53.4957 55.6319 53.4574 55.6618 53.4141C55.6907 53.3647 55.7134 53.3164 55.7301 53.2692C55.7456 53.216 55.7611 53.1627 55.7766 53.1094C55.7872 53.0634 55.7841 52.9599 55.7674 52.799C55.7569 52.6369 55.7382 52.448 55.7115 52.2322C55.6838 52.0102 55.6512 51.7797 55.614 51.5405C55.5818 51.2941 55.5468 51.0672 55.509 50.8597C55.4762 50.6449 55.4465 50.4643 55.4198 50.3178C55.3921 50.1653 55.3723 50.0743 55.3607 50.0449C55.3313 49.9871 55.286 49.9292 55.225 49.8709C55.1734 49.8299 55.1059 49.7885 55.0227 49.7469C54.9383 49.6992 54.8324 49.6712 54.7047 49.6629Z" fill="#1098AD"/>
</svg>
